Coordinates
version=1
nRows=19
nColumns=24
inDegrees=yes

Units are S.I. units (second, meters, Newtons, ...)
Angles are in degrees.

endheader
time	pelvis_tilt	pelvis_list	pelvis_rotation	pelvis_tx	pelvis_ty	pelvis_tz	hip_flexion_r	hip_adduction_r	hip_rotation_r	knee_angle_r	ankle_angle_r	subtalar_angle_r	mtp_angle_r	hip_flexion_l	hip_adduction_l	hip_rotation_l	knee_angle_l	ankle_angle_l	subtalar_angle_l	mtp_angle_l	lumbar_extension	lumbar_bending	lumbar_rotation
      3.41000000	    -10.02300399	      2.96751493	     -7.41551850	     -1.24461601	     -0.05066013	      0.72192804	     -8.67587016	     -4.98356799	      9.23678617	    -13.71612616	      9.63500674	      6.74692952	     17.54538618	     40.22954417	     -1.91715762	     -7.25335093	    -22.39525586	      0.83951140	      3.50973532	      9.06881644	      4.95152106	     -0.05894190	      7.30903384
      3.41500000	    -10.18825238	      3.24051378	     -7.61492064	     -1.23647001	     -0.05173340	      0.72216134	     -8.24745487	     -5.30882050	      9.09402774	    -14.89707423	      9.16662503	      7.38065016	     18.36621087	     40.43323459	     -1.73098153	     -7.23837132	    -23.06400219	     -0.18301546	      2.94700913	     10.41432920	      5.21676447	     -0.48435273	      7.42371774
      3.42000000	    -10.39769161	      3.60788674	     -7.73877675	     -1.22818648	     -0.05280577	      0.72233942	     -7.70068673	     -5.71994913	      8.82279599	    -16.20124965	      8.62155713	      8.03078009	     19.19918882	     40.73743450	     -1.40310753	     -7.09770926	    -23.91261557	     -1.12072913	      2.39348424	     11.37761436	      5.56457141	     -1.02031360	      7.47949061
      3.42500000	    -10.55908601	      4.00550257	     -7.72959322	     -1.21987683	     -0.05378174	      0.72248598	     -7.19643935	     -6.13708178	      8.57248380	    -17.50398498	      7.77971770	      8.35722884	     20.76344698	     41.04780974	     -0.95894970	     -6.83231330	    -24.85021703	     -2.37386626	      1.75023498	     13.22431158	      5.86309567	     -1.63824635	      7.34658237
      3.43000000	    -10.76367178	      4.37210283	     -7.76797136	     -1.21170512	     -0.05475268	      0.72255680	     -6.49326112	     -6.53087174	      8.29592563	    -19.06234367	      6.98237632	      8.96755312	     21.71570695	     41.45949635	     -0.53660017	     -6.40965595	    -25.96827697	     -3.16684869	      1.14768877	     13.93817566	      6.18751107	     -2.19015326	      7.33342763
      3.43500000	    -10.88143860	      4.75276464	     -7.73780108	     -1.20351012	     -0.05556965	      0.72263958	     -5.85829353	     -6.92846557	      8.05492428	    -20.60471764	      5.77614322	      9.19572628	     23.71735282	     41.79294899	     -0.03780928	     -5.94360486	    -27.08824897	     -3.93756392	      0.49597576	     14.86037530	      6.41720217	     -2.79477347	      7.19780274
      3.44000000	    -11.03900027	      5.14481895	     -7.64129078	     -1.19531294	     -0.05645517	      0.72259670	     -5.08607364	     -7.34387803	      7.67693840	    -22.32986340	      4.59484428	      9.66734641	     25.24287457	     42.20639295	      0.51848359	     -5.49916481	    -28.28238245	     -4.22932539	     -0.06068514	     14.65172273	      6.69005364	     -3.40832858	      6.97859929
      3.44500000	    -11.14455071	      5.57288508	     -7.52985099	     -1.18706311	     -0.05721436	      0.72251909	     -4.31793031	     -7.80734899	      7.32922029	    -24.07489650	      3.09520205	      9.96772834	     27.37244030	     42.52065266	      1.15894146	     -5.00070811	    -29.40244602	     -4.09569204	     -0.66029324	     13.35776173	      6.91650100	     -4.06408011	      6.80311826
      3.45000000	    -11.21743800	      6.01516450	     -7.36976174	     -1.17881529	     -0.05793303	      0.72236111	     -3.52823430	     -8.29757351	      6.92344119	    -25.88448718	      1.43151476	     10.24980819	     29.59420493	     42.78004917	      1.85512593	     -4.58582695	    -30.47157366	     -3.57455065	     -1.34078638	     10.95590461	      7.10489946	     -4.74185361	      6.56235128
      3.45500000	    -11.24941651	      6.46430412	     -7.18497750	     -1.17056949	     -0.05856861	      0.72214041	     -2.73452846	     -8.80645003	      6.52218166	    -27.72539377	     -0.45053311	     10.46297914	     31.97481158	     42.94224209	      2.59000779	     -4.22581774	    -31.43530513	     -2.73803552	     -2.12668214	      7.64336971	      7.24554134	     -5.42843200	      6.30190809
      3.46000000	    -11.26235976	      6.93114597	     -6.95890610	     -1.16231600	     -0.05915606	      0.72189007	     -1.92326431	     -9.33967939	      6.09737769	    -29.58325487	     -2.53392608	     10.57187914	     34.49439053	     43.02593187	      3.35914623	     -3.95921521	    -32.27900484	     -1.73132510	     -2.96884960	      3.88824683	      7.36582260	     -6.13709086	      5.96595335
      3.46500000	    -11.23866871	      7.35120391	     -6.74222390	     -1.15416293	     -0.05963202	      0.72160587	     -1.11635250	     -9.82484715	      5.74352659	    -31.42366944	     -4.83177093	     10.56733928	     37.18065162	     43.00100833	      4.09545801	     -3.68379693	    -33.00590508	     -0.62071044	     -3.84383326	     -0.06597048	      7.42320542	     -6.78770587	      5.67656962
      3.47000000	    -11.19993506	      7.71222793	     -6.51047884	     -1.14612800	     -0.06002696	      0.72126598	     -0.29592176	    -10.24030677	      5.44189559	    -33.25805712	     -7.28289433	     10.49066563	     39.81850812	     42.90040377	      4.78807849	     -3.41539532	    -33.63292711	      0.46715813	     -4.67663104	     -3.79482983	      7.43826820	     -7.36658567	      5.36109104
      3.47500000	    -11.23874154	      8.14547481	     -6.18939654	     -1.13796965	     -0.06047938	      0.72094290	      0.61299939	    -10.72823886	      5.03356204	    -35.08723155	     -9.77567394	     10.31641568	     42.36090377	     42.80024694	      5.55532920	     -3.17676746	    -34.10189359	      1.25309993	     -5.30678049	     -6.18136308	      7.56357874	     -8.03542459	      4.97960725
      3.48000000	    -11.20959572	      8.45819585	     -5.92461415	     -1.13005537	     -0.06070261	      0.72062434	      1.47933666	    -11.06932141	      4.75809895	    -36.86159207	    -12.44210163	      9.88957480	     45.02443750	     42.58256429	      6.18603581	     -2.96214351	    -34.51757884	      1.96204808	     -5.85210731	     -8.24284941	      7.56833558	     -8.55688019	      4.62658078
      3.48500000	    -11.23633455	      8.75892274	     -5.60683273	     -1.12222873	     -0.06094170	      0.72017351	      2.43235116	    -11.41107354	      4.39938599	    -38.65379376	    -15.03407158	      9.45320340	     47.49077068	     42.39132579	      6.81756432	     -2.76755333	    -34.87661838	      2.52329805	     -6.26556948	     -9.71652443	      7.61525836	     -9.04966132	      4.22388941
      3.49000000	    -11.26547938	      9.02910434	     -5.30179594	     -1.11450026	     -0.06104933	      0.71971248	      3.41372607	    -11.71345335	      4.06940749	    -40.42482540	    -17.59909202	      8.81211514	     49.85591740	     42.15406265	      7.40665940	     -2.57387660	    -35.16493072	      3.03096241	     -6.57773058	    -10.94440100	      7.65778509	     -9.49272524	      3.86087974
      3.49500000	    -11.30755129	      9.31343704	     -5.00631863	     -1.10683729	     -0.06105874	      0.71925680	      4.44010808	    -12.02830660	      3.76140600	    -42.19756282	    -20.02198471	      8.00908923	     52.02336742	     41.89208911	      7.98058195	     -2.44362353	    -35.39072269	      3.58418224	     -6.77527882	    -12.21898261	      7.71381576	     -9.93785745	      3.47948832
      3.50000000	    -11.38966066	      9.59531410	     -4.70656005	     -1.09925712	     -0.06102073	      0.71873365	      5.54414975	    -12.35132525	      3.43746030	    -43.99849094	    -22.21521832	      7.08030363	     53.85258127	     41.64330121	      8.54534331	     -2.31746883	    -35.56964041	      4.19073438	     -6.95624245	    -13.68858508	      7.81136334	    -10.36171127	      3.12010058
